<?xml version="1.0" encoding="UTF-8" standalone="no"?>
<!DOCTYPE svg PUBLIC "-//W3C//DTD SVG 1.1//EN" "http://www.w3.org/Graphics/SVG/1.1/DTD/svg11.dtd">
<svg width="100%" height="100%" viewBox="0 0 100 100" version="1.1" xmlns="http://www.w3.org/2000/svg" xmlns:xlink="http://www.w3.org/1999/xlink" xml:space="preserve" xmlns:serif="http://www.serif.com/" style="fill-rule:evenodd;clip-rule:evenodd;stroke-linecap:round;stroke-linejoin:round;stroke-miterlimit:1.5;">
    <g transform="matrix(0.813802,0,0,0.813802,0,0)">
        <g transform="matrix(-0.0015508,1.2288,-0.652542,-0.00161414,107.941,54.6909)">
            <path d="M37.522,22.211L37.497,3.38" style="fill:none;stroke:rgb(104,104,191);stroke-width:6.25px;"/>
        </g>
        <g transform="matrix(-0.0015508,1.2288,-0.652542,-0.00161414,82.5454,54.6909)">
            <path d="M37.522,22.211L37.497,3.38" style="fill:none;stroke:rgb(104,104,191);stroke-width:6.25px;"/>
        </g>
        <g transform="matrix(-0.0015508,1.2288,-0.652542,-0.00161414,57.1502,54.6909)">
            <path d="M37.522,22.211L37.497,3.38" style="fill:none;stroke:rgb(104,104,191);stroke-width:6.25px;"/>
        </g>
        <g transform="matrix(-0.0015508,1.2288,-0.652542,-0.00161414,31.755,54.6909)">
            <path d="M37.522,22.211L37.497,3.38" style="fill:none;stroke:rgb(104,104,191);stroke-width:6.25px;"/>
        </g>
        <g transform="matrix(-0.0015508,1.2288,-0.652542,-0.00161414,107.941,36.2589)">
            <path d="M37.522,22.211L37.497,3.38" style="fill:none;stroke:rgb(104,104,191);stroke-width:6.25px;"/>
        </g>
        <g transform="matrix(-0.0015508,1.2288,-0.652542,-0.00161414,82.5454,36.2589)">
            <path d="M37.522,22.211L37.497,3.38" style="fill:none;stroke:rgb(104,104,191);stroke-width:6.25px;"/>
        </g>
        <g transform="matrix(-0.0015508,1.2288,-0.652542,-0.00161414,57.1502,36.2589)">
            <path d="M37.522,22.211L37.497,3.38" style="fill:none;stroke:rgb(104,104,191);stroke-width:6.25px;"/>
        </g>
        <g transform="matrix(-0.0015508,1.2288,-0.652542,-0.00161414,31.755,36.2589)">
            <path d="M37.522,22.211L37.497,3.38" style="fill:none;stroke:rgb(104,104,191);stroke-width:6.25px;"/>
        </g>
        <g transform="matrix(-0.0015508,1.2288,-0.652542,-0.00161414,107.941,17.8269)">
            <path d="M37.522,22.211L37.497,3.38" style="fill:none;stroke:rgb(104,104,191);stroke-width:6.25px;"/>
        </g>
        <g transform="matrix(-0.0015508,1.2288,-0.652542,-0.00161414,82.5454,17.8269)">
            <path d="M37.522,22.211L37.497,3.38" style="fill:none;stroke:rgb(104,104,191);stroke-width:6.25px;"/>
        </g>
        <g transform="matrix(-0.0015508,1.2288,-0.652542,-0.00161414,57.1502,17.8269)">
            <path d="M37.522,22.211L37.497,3.38" style="fill:none;stroke:rgb(104,104,191);stroke-width:6.25px;"/>
        </g>
        <g transform="matrix(-0.0015508,1.2288,-0.652542,-0.00161414,31.755,17.8269)">
            <path d="M37.522,22.211L37.497,3.38" style="fill:none;stroke:rgb(104,104,191);stroke-width:6.25px;"/>
        </g>
        <g transform="matrix(-0.0147326,1.2288,-6.19915,-0.00161414,141.314,3.08133)">
            <path d="M37.522,22.211L37.497,3.38" style="fill:none;stroke:rgb(104,104,191);stroke-width:5.11px;stroke-linecap:butt;"/>
        </g>
        <g transform="matrix(1.2288,0,0,0.913562,-9.2122,3.05608)">
            <path d="M37.522,22.211L37.497,3.38" style="fill:none;stroke:rgb(104,104,191);stroke-width:11.35px;"/>
        </g>
        <g transform="matrix(1.2288,0,0,0.913562,39.9398,3.05608)">
            <path d="M37.522,22.211L37.497,3.38" style="fill:none;stroke:rgb(104,104,191);stroke-width:11.35px;"/>
        </g>
        <g transform="matrix(-0.00279144,1.2288,-1.17458,-0.00161414,76.574,-31.3251)">
            <path d="M37.522,22.211L37.497,3.38" style="fill:none;stroke:rgb(104,104,191);stroke-width:5.11px;"/>
        </g>
        <g transform="matrix(1.25168,0,0,1.24125,-0.990119,-0.19135)">
            <path d="M16.499,12.034L7.442,12.034C5.126,12.034 3.245,13.93 3.245,16.266L3.245,92.444C3.245,94.78 5.126,96.677 7.442,96.677L92.312,96.677C94.628,96.677 96.509,94.78 96.509,92.444L96.509,16.266C96.509,13.93 94.628,12.034 92.312,12.034L83.256,12.034" style="fill:none;stroke:rgb(104,104,191);stroke-width:4.93px;"/>
        </g>
    </g>
</svg>
