<?xml version="1.0" encoding="UTF-8" standalone="no"?>
<!DOCTYPE svg PUBLIC "-//W3C//DTD SVG 1.1//EN" "http://www.w3.org/Graphics/SVG/1.1/DTD/svg11.dtd">
<svg width="100%" height="100%" viewBox="0 0 43 43" version="1.1" xmlns="http://www.w3.org/2000/svg" xmlns:xlink="http://www.w3.org/1999/xlink" xml:space="preserve" xmlns:serif="http://www.serif.com/" style="fill-rule:evenodd;clip-rule:evenodd;stroke-linecap:round;stroke-linejoin:round;stroke-miterlimit:1.5;">
    <g id="New-Window" serif:id="New Window" transform="matrix(0.821749,0,0,0.821749,-777.925,-131.128)">
        <path d="M972.834,161.397L960.665,161.397C953.949,161.397 948.496,166.849 948.496,173.566L948.496,197.904C948.496,204.621 953.949,210.073 960.665,210.073L985.003,210.073C991.72,210.073 997.172,204.621 997.172,197.904L997.172,187.5" style="fill:none;stroke:white;stroke-width:3.65px;"/>
        <g transform="matrix(1.33917,0,0,1,-338.212,0)">
            <path d="M997.172,161.397L985.971,161.397L997.172,161.397Z" style="fill:none;stroke:white;stroke-width:3.09px;"/>
        </g>
        <g transform="matrix(8.20006e-17,1.33917,-1,6.12323e-17,1158.57,-1158.99)">
            <path d="M997.172,161.397L985.971,161.397L997.172,161.397Z" style="fill:none;stroke:white;stroke-width:3.09px;"/>
        </g>
        <g transform="matrix(-1.57823,1.57823,-0.707107,-0.707107,2667.39,-1280.57)">
            <path d="M997.172,161.397L985.971,161.397L997.172,161.397Z" style="fill:none;stroke:white;stroke-width:2.11px;"/>
        </g>
    </g>
</svg>
